<svg viewBox="0 0 200 200" xmlns="http://www.w3.org/2000/svg">
  <path fill="#8A3FFC" d="M39.3,-64.5C53.4,-59.9,69,-54.4,70.3,-43.5C71.6,-32.6,58.6,-16.3,56.6,-1.2C54.6,14,63.5,27.9,63.3,40.7C63.1,53.5,53.7,65.1,41.6,73.3C29.5,81.6,14.8,86.5,0.6,85.6C-13.6,84.6,-27.2,77.6,-38.8,69.1C-50.5,60.6,-60.2,50.5,-67.8,38.7C-75.4,26.9,-81,13.4,-75.1,3.4C-69.2,-6.6,-51.9,-13.3,-41.1,-19.6C-30.3,-25.9,-26.1,-31.9,-20.3,-41.3C-14.6,-50.6,-7.3,-63.4,2.7,-68C12.6,-72.6,25.2,-69.1,39.3,-64.5Z" transform="translate(100 100)" />
</svg>